<mxfile host="Electron" modified="2024-01-20T15:48:40.755Z" agent="Mozilla/5.0 (Macintosh; Intel Mac OS X 10_15_7) AppleWebKit/537.36 (KHTML, like Gecko) draw.io/22.1.21 Chrome/120.0.6099.109 Electron/28.1.0 Safari/537.36" etag="a0lJOj2a7MPZlk6wUp1m" version="22.1.21" type="device">
  <diagram id="Jtq0wx4SDSMLCsT2-B9x" name="Page-1">
    <mxGraphModel dx="826" dy="623" grid="1" gridSize="10" guides="1" tooltips="1" connect="1" arrows="1" fold="1" page="1" pageScale="1" pageWidth="850" pageHeight="1100" math="0" shadow="0">
      <root>
        <mxCell id="0" />
        <mxCell id="EV7D-chZJcu2U4-9GLXk-6" value="Untitled Layer" parent="0" />
        <mxCell id="2" value="" style="rounded=0;fillColor=#f8cecc;strokeColor=#b85450;" parent="EV7D-chZJcu2U4-9GLXk-6" vertex="1">
          <mxGeometry x="140" y="380" width="450" height="310" as="geometry" />
        </mxCell>
        <mxCell id="5MDx8M7PKH2fSza1fkfd-17" value="&lt;font style=&quot;font-size: 18px;&quot;&gt;&lt;b&gt;Kernel&lt;/b&gt;&lt;/font&gt;" style="text;html=1;align=center;verticalAlign=middle;resizable=0;points=[];autosize=1;strokeColor=none;fillColor=none;fontSize=15;" parent="EV7D-chZJcu2U4-9GLXk-6" vertex="1">
          <mxGeometry x="510" y="650" width="80" height="40" as="geometry" />
        </mxCell>
        <mxCell id="5MDx8M7PKH2fSza1fkfd-46" value="" style="shape=cylinder3;boundedLbl=1;backgroundOutline=1;size=15;fontSize=18;" parent="EV7D-chZJcu2U4-9GLXk-6" vertex="1">
          <mxGeometry x="411.1886046511628" y="832.3404255319149" width="44.651162790697676" height="42.12765957446808" as="geometry" />
        </mxCell>
        <mxCell id="5MDx8M7PKH2fSza1fkfd-47" value="" style="shape=link;rounded=0;fontSize=18;strokeWidth=1;" parent="EV7D-chZJcu2U4-9GLXk-6" edge="1">
          <mxGeometry width="100" relative="1" as="geometry">
            <mxPoint x="288.3979069767442" y="761.7765957446809" as="sourcePoint" />
            <mxPoint x="437.23511627906976" y="762.1276595744681" as="targetPoint" />
          </mxGeometry>
        </mxCell>
        <mxCell id="5MDx8M7PKH2fSza1fkfd-49" style="edgeStyle=none;shape=link;rounded=0;orthogonalLoop=1;jettySize=auto;exitX=0.5;exitY=0;exitDx=0;exitDy=0;fontSize=18;strokeWidth=1;" parent="EV7D-chZJcu2U4-9GLXk-6" source="5MDx8M7PKH2fSza1fkfd-50" edge="1">
          <mxGeometry relative="1" as="geometry">
            <mxPoint x="344.2118604651163" y="762.1276595744681" as="targetPoint" />
          </mxGeometry>
        </mxCell>
        <mxCell id="5MDx8M7PKH2fSza1fkfd-51" style="edgeStyle=none;shape=link;rounded=0;orthogonalLoop=1;jettySize=auto;exitX=0.5;exitY=1;exitDx=0;exitDy=0;fontSize=18;strokeWidth=1;" parent="EV7D-chZJcu2U4-9GLXk-6" source="5MDx8M7PKH2fSza1fkfd-53" target="5MDx8M7PKH2fSza1fkfd-46" edge="1">
          <mxGeometry relative="1" as="geometry" />
        </mxCell>
        <mxCell id="5MDx8M7PKH2fSza1fkfd-52" style="edgeStyle=none;shape=link;rounded=0;orthogonalLoop=1;jettySize=auto;exitX=0.5;exitY=0;exitDx=0;exitDy=0;fontSize=18;strokeWidth=1;" parent="EV7D-chZJcu2U4-9GLXk-6" source="5MDx8M7PKH2fSza1fkfd-53" edge="1">
          <mxGeometry relative="1" as="geometry">
            <mxPoint x="433.51418604651167" y="762.1276595744681" as="targetPoint" />
          </mxGeometry>
        </mxCell>
        <UserObject label="Disk&#xa;Controller" treeRoot="1" id="5MDx8M7PKH2fSza1fkfd-53">
          <mxCell style="align=center;collapsible=0;container=1;recursiveResize=0;fontSize=13;" parent="EV7D-chZJcu2U4-9GLXk-6" vertex="1">
            <mxGeometry x="400.0258139534884" y="776.1702127659574" width="66.97674418604652" height="42.12765957446808" as="geometry" />
          </mxCell>
        </UserObject>
        <mxCell id="5MDx8M7PKH2fSza1fkfd-54" value="" style="sketch=0;pointerEvents=1;shadow=0;dashed=0;strokeColor=none;fillColor=#434445;aspect=fixed;labelPosition=center;verticalLabelPosition=bottom;verticalAlign=top;align=center;outlineConnect=0;shape=mxgraph.vvd.ethernet_port;fontSize=18;" parent="EV7D-chZJcu2U4-9GLXk-6" vertex="1">
          <mxGeometry x="325.60720930232554" y="832.3404255319149" width="34.93840985442329" height="34.93840985442329" as="geometry" />
        </mxCell>
        <UserObject label="Memory" treeRoot="1" id="5MDx8M7PKH2fSza1fkfd-45">
          <mxCell style="align=center;collapsible=0;container=1;recursiveResize=0;fontSize=18;" parent="EV7D-chZJcu2U4-9GLXk-6" vertex="1">
            <mxGeometry x="176.76999999999998" y="804.2553191489362" width="111.6279069767442" height="49.148936170212764" as="geometry" />
          </mxCell>
        </UserObject>
        <mxCell id="5MDx8M7PKH2fSza1fkfd-44" style="edgeStyle=none;rounded=0;orthogonalLoop=1;jettySize=auto;entryX=0.5;entryY=1;entryDx=0;entryDy=0;fontSize=18;shape=link;strokeWidth=4;" parent="EV7D-chZJcu2U4-9GLXk-6" source="5MDx8M7PKH2fSza1fkfd-45" target="5MDx8M7PKH2fSza1fkfd-43" edge="1">
          <mxGeometry relative="1" as="geometry" />
        </mxCell>
        <UserObject label="Network&#xa;Controller" treeRoot="1" id="5MDx8M7PKH2fSza1fkfd-50">
          <mxCell style="align=center;collapsible=0;container=1;recursiveResize=0;fontSize=13;" parent="EV7D-chZJcu2U4-9GLXk-6" vertex="1">
            <mxGeometry x="310.723488372093" y="776.1702127659574" width="66.97674418604652" height="42.12765957446808" as="geometry" />
          </mxCell>
        </UserObject>
        <mxCell id="5MDx8M7PKH2fSza1fkfd-48" style="edgeStyle=none;shape=link;rounded=0;orthogonalLoop=1;jettySize=auto;exitX=0.5;exitY=1;exitDx=0;exitDy=0;fontSize=18;strokeWidth=1;" parent="EV7D-chZJcu2U4-9GLXk-6" source="5MDx8M7PKH2fSza1fkfd-50" target="5MDx8M7PKH2fSza1fkfd-54" edge="1">
          <mxGeometry relative="1" as="geometry" />
        </mxCell>
        <mxCell id="5MDx8M7PKH2fSza1fkfd-55" value="I/O bus" style="text;resizable=0;autosize=1;align=center;verticalAlign=middle;points=[];fillColor=none;strokeColor=none;rounded=0;fontSize=13;" parent="EV7D-chZJcu2U4-9GLXk-6" vertex="1">
          <mxGeometry x="370.25837209302324" y="730.003829787234" width="70" height="30" as="geometry" />
        </mxCell>
        <UserObject label="CPU" treeRoot="1" id="5MDx8M7PKH2fSza1fkfd-43">
          <mxCell style="align=center;collapsible=0;container=1;recursiveResize=0;fontSize=18;" parent="EV7D-chZJcu2U4-9GLXk-6" vertex="1">
            <mxGeometry x="176.76999999999998" y="712.98" width="111.6279069767442" height="63.19148936170213" as="geometry" />
          </mxCell>
        </UserObject>
        <mxCell id="kxdvltDOQqhLtUZSBMHC-44" value="Process table" style="shape=table;startSize=30;container=1;collapsible=0;childLayout=tableLayout;labelBackgroundColor=#bac8d3;fontSize=13;points=[[0.83,0.25,0,0,0],[0.83,0.5,0,0,0],[0.83,0.75,0,0,0]];fillColor=#bac8d3;swimlaneFillColor=#FFFFFF;strokeColor=#23445d;fontColor=none;noLabel=1;" parent="EV7D-chZJcu2U4-9GLXk-6" vertex="1">
          <mxGeometry x="170" y="460" width="85" height="100" as="geometry" />
        </mxCell>
        <mxCell id="kxdvltDOQqhLtUZSBMHC-45" value="" style="shape=tableRow;horizontal=0;startSize=0;swimlaneHead=0;swimlaneBody=0;top=0;left=0;bottom=0;right=0;collapsible=0;dropTarget=0;fillColor=none;points=[[0,0.5],[1,0.5]];portConstraint=eastwest;labelBackgroundColor=#FFFFFF;fontSize=13;" parent="kxdvltDOQqhLtUZSBMHC-44" vertex="1">
          <mxGeometry y="30" width="85" height="18" as="geometry" />
        </mxCell>
        <mxCell id="kxdvltDOQqhLtUZSBMHC-46" value="PID" style="shape=partialRectangle;html=1;whiteSpace=wrap;connectable=0;overflow=hidden;fillColor=#f5f5f5;top=0;left=0;bottom=0;right=0;pointerEvents=1;labelBackgroundColor=#FFFFFF;fontSize=13;fontColor=#333333;strokeColor=#666666;" parent="kxdvltDOQqhLtUZSBMHC-45" vertex="1">
          <mxGeometry width="58" height="18" as="geometry">
            <mxRectangle width="58" height="18" as="alternateBounds" />
          </mxGeometry>
        </mxCell>
        <mxCell id="kxdvltDOQqhLtUZSBMHC-47" value="" style="shape=partialRectangle;html=1;whiteSpace=wrap;connectable=0;overflow=hidden;fillColor=none;top=0;left=0;bottom=0;right=0;pointerEvents=1;labelBackgroundColor=#FFFFFF;fontSize=13;" parent="kxdvltDOQqhLtUZSBMHC-45" vertex="1">
          <mxGeometry x="58" width="27" height="18" as="geometry">
            <mxRectangle width="27" height="18" as="alternateBounds" />
          </mxGeometry>
        </mxCell>
        <mxCell id="kxdvltDOQqhLtUZSBMHC-48" value="" style="shape=tableRow;horizontal=0;startSize=0;swimlaneHead=0;swimlaneBody=0;top=0;left=0;bottom=0;right=0;collapsible=0;dropTarget=0;fillColor=none;points=[[0,0.5],[1,0.5]];portConstraint=eastwest;labelBackgroundColor=#FFFFFF;fontSize=13;" parent="kxdvltDOQqhLtUZSBMHC-44" vertex="1">
          <mxGeometry y="48" width="85" height="17" as="geometry" />
        </mxCell>
        <mxCell id="kxdvltDOQqhLtUZSBMHC-49" value="1" style="shape=partialRectangle;html=1;whiteSpace=wrap;connectable=0;overflow=hidden;fillColor=none;top=0;left=0;bottom=0;right=0;pointerEvents=1;labelBackgroundColor=#FFFFFF;fontSize=11;" parent="kxdvltDOQqhLtUZSBMHC-48" vertex="1">
          <mxGeometry width="58" height="17" as="geometry">
            <mxRectangle width="58" height="17" as="alternateBounds" />
          </mxGeometry>
        </mxCell>
        <mxCell id="kxdvltDOQqhLtUZSBMHC-50" value="" style="shape=partialRectangle;html=1;whiteSpace=wrap;connectable=0;overflow=hidden;fillColor=none;top=0;left=0;bottom=0;right=0;pointerEvents=1;labelBackgroundColor=#FFFFFF;fontSize=13;" parent="kxdvltDOQqhLtUZSBMHC-48" vertex="1">
          <mxGeometry x="58" width="27" height="17" as="geometry">
            <mxRectangle width="27" height="17" as="alternateBounds" />
          </mxGeometry>
        </mxCell>
        <mxCell id="kxdvltDOQqhLtUZSBMHC-51" value="" style="shape=tableRow;horizontal=0;startSize=0;swimlaneHead=0;swimlaneBody=0;top=0;left=0;bottom=0;right=0;collapsible=0;dropTarget=0;fillColor=none;points=[[0,0.5],[1,0.5]];portConstraint=eastwest;labelBackgroundColor=#FFFFFF;fontSize=13;" parent="kxdvltDOQqhLtUZSBMHC-44" vertex="1">
          <mxGeometry y="65" width="85" height="18" as="geometry" />
        </mxCell>
        <mxCell id="kxdvltDOQqhLtUZSBMHC-52" value="2" style="shape=partialRectangle;html=1;whiteSpace=wrap;connectable=0;overflow=hidden;fillColor=none;top=0;left=0;bottom=0;right=0;pointerEvents=1;labelBackgroundColor=#FFFFFF;fontSize=11;" parent="kxdvltDOQqhLtUZSBMHC-51" vertex="1">
          <mxGeometry width="58" height="18" as="geometry">
            <mxRectangle width="58" height="18" as="alternateBounds" />
          </mxGeometry>
        </mxCell>
        <mxCell id="kxdvltDOQqhLtUZSBMHC-53" value="" style="shape=partialRectangle;html=1;whiteSpace=wrap;connectable=0;overflow=hidden;fillColor=none;top=0;left=0;bottom=0;right=0;pointerEvents=1;labelBackgroundColor=#FFFFFF;fontSize=13;" parent="kxdvltDOQqhLtUZSBMHC-51" vertex="1">
          <mxGeometry x="58" width="27" height="18" as="geometry">
            <mxRectangle width="27" height="18" as="alternateBounds" />
          </mxGeometry>
        </mxCell>
        <mxCell id="kxdvltDOQqhLtUZSBMHC-54" value="" style="shape=tableRow;horizontal=0;startSize=0;swimlaneHead=0;swimlaneBody=0;top=0;left=0;bottom=0;right=0;collapsible=0;dropTarget=0;fillColor=none;points=[[0,0.5],[1,0.5]];portConstraint=eastwest;labelBackgroundColor=#FFFFFF;fontSize=13;" parent="kxdvltDOQqhLtUZSBMHC-44" vertex="1">
          <mxGeometry y="83" width="85" height="17" as="geometry" />
        </mxCell>
        <mxCell id="kxdvltDOQqhLtUZSBMHC-55" value="3" style="shape=partialRectangle;html=1;whiteSpace=wrap;connectable=0;overflow=hidden;fillColor=none;top=0;left=0;bottom=0;right=0;pointerEvents=1;labelBackgroundColor=#FFFFFF;fontSize=11;" parent="kxdvltDOQqhLtUZSBMHC-54" vertex="1">
          <mxGeometry width="58" height="17" as="geometry">
            <mxRectangle width="58" height="17" as="alternateBounds" />
          </mxGeometry>
        </mxCell>
        <mxCell id="kxdvltDOQqhLtUZSBMHC-56" value="" style="shape=partialRectangle;html=1;whiteSpace=wrap;connectable=0;overflow=hidden;fillColor=none;top=0;left=0;bottom=0;right=0;pointerEvents=1;labelBackgroundColor=#FFFFFF;fontSize=13;" parent="kxdvltDOQqhLtUZSBMHC-54" vertex="1">
          <mxGeometry x="58" width="27" height="17" as="geometry">
            <mxRectangle width="27" height="17" as="alternateBounds" />
          </mxGeometry>
        </mxCell>
        <mxCell id="kxdvltDOQqhLtUZSBMHC-57" style="edgeStyle=none;rounded=0;orthogonalLoop=1;jettySize=auto;html=1;exitX=1;exitY=0.5;exitDx=0;exitDy=0;strokeWidth=2;fontSize=13;movable=1;resizable=1;rotatable=1;deletable=1;editable=1;connectable=1;entryX=0;entryY=0.5;entryDx=0;entryDy=0;" parent="EV7D-chZJcu2U4-9GLXk-6" source="kxdvltDOQqhLtUZSBMHC-48" target="s5f2JVeFz2QCgacz7sFo-12" edge="1">
          <mxGeometry relative="1" as="geometry">
            <mxPoint x="390" y="489" as="sourcePoint" />
            <mxPoint x="308.98" y="499" as="targetPoint" />
          </mxGeometry>
        </mxCell>
        <mxCell id="kxdvltDOQqhLtUZSBMHC-85" value="" style="group" parent="EV7D-chZJcu2U4-9GLXk-6" vertex="1" connectable="0">
          <mxGeometry x="140" y="240" width="130" height="150" as="geometry" />
        </mxCell>
        <mxCell id="3" value="" style="rounded=0;fillColor=#dae8fc;strokeColor=#6c8ebf;" parent="kxdvltDOQqhLtUZSBMHC-85" vertex="1">
          <mxGeometry width="130" height="87.5" as="geometry" />
        </mxCell>
        <mxCell id="5MDx8M7PKH2fSza1fkfd-15" value="Process" style="text;html=1;align=center;verticalAlign=middle;resizable=0;points=[];autosize=1;strokeColor=none;fillColor=none;fontSize=15;" parent="kxdvltDOQqhLtUZSBMHC-85" vertex="1">
          <mxGeometry x="20" y="12.499999999999998" width="80" height="30" as="geometry" />
        </mxCell>
        <mxCell id="5MDx8M7PKH2fSza1fkfd-7" value="" style="shape=flexArrow;endArrow=classic;html=1;rounded=0;fillColor=#a20025;strokeColor=#6F0000;endWidth=8;endSize=7.33;" parent="kxdvltDOQqhLtUZSBMHC-85" edge="1">
          <mxGeometry x="-0.7143" y="-120" width="50" height="50" relative="1" as="geometry">
            <mxPoint x="60" y="62.49999999999999" as="sourcePoint" />
            <mxPoint x="60" y="150" as="targetPoint" />
            <mxPoint as="offset" />
          </mxGeometry>
        </mxCell>
        <mxCell id="s5f2JVeFz2QCgacz7sFo-6" value="" style="group" vertex="1" connectable="0" parent="EV7D-chZJcu2U4-9GLXk-6">
          <mxGeometry x="310" y="240" width="130" height="150" as="geometry" />
        </mxCell>
        <mxCell id="s5f2JVeFz2QCgacz7sFo-7" value="" style="rounded=0;fillColor=#dae8fc;strokeColor=#6c8ebf;" vertex="1" parent="s5f2JVeFz2QCgacz7sFo-6">
          <mxGeometry width="130" height="87.5" as="geometry" />
        </mxCell>
        <mxCell id="s5f2JVeFz2QCgacz7sFo-9" value="" style="shape=flexArrow;endArrow=classic;html=1;rounded=0;fillColor=#a20025;strokeColor=#6F0000;endWidth=8;endSize=7.33;" edge="1" parent="s5f2JVeFz2QCgacz7sFo-6">
          <mxGeometry x="-0.7143" y="-120" width="50" height="50" relative="1" as="geometry">
            <mxPoint x="60" y="62.49999999999999" as="sourcePoint" />
            <mxPoint x="60" y="150" as="targetPoint" />
            <mxPoint as="offset" />
          </mxGeometry>
        </mxCell>
        <mxCell id="s5f2JVeFz2QCgacz7sFo-10" value="" style="shape=flexArrow;endArrow=classic;html=1;rounded=0;fillColor=#a20025;strokeColor=#6F0000;endWidth=8;endSize=7.33;" edge="1" parent="EV7D-chZJcu2U4-9GLXk-6">
          <mxGeometry x="-0.7143" y="-120" width="50" height="50" relative="1" as="geometry">
            <mxPoint x="467" y="740" as="sourcePoint" />
            <mxPoint x="467" y="670" as="targetPoint" />
            <mxPoint as="offset" />
          </mxGeometry>
        </mxCell>
        <mxCell id="s5f2JVeFz2QCgacz7sFo-12" value="task" style="rounded=0;whiteSpace=wrap;html=1;strokeWidth=2;" vertex="1" parent="EV7D-chZJcu2U4-9GLXk-6">
          <mxGeometry x="310" y="440" width="60" height="40" as="geometry" />
        </mxCell>
        <mxCell id="s5f2JVeFz2QCgacz7sFo-13" style="edgeStyle=none;rounded=0;orthogonalLoop=1;jettySize=auto;html=1;exitX=1;exitY=0.5;exitDx=0;exitDy=0;strokeWidth=2;fontSize=13;movable=1;resizable=1;rotatable=1;deletable=1;editable=1;connectable=1;entryX=0;entryY=0.5;entryDx=0;entryDy=0;" edge="1" parent="EV7D-chZJcu2U4-9GLXk-6" source="kxdvltDOQqhLtUZSBMHC-51" target="s5f2JVeFz2QCgacz7sFo-14">
          <mxGeometry relative="1" as="geometry">
            <mxPoint x="360" y="529" as="sourcePoint" />
            <mxPoint x="370" y="530" as="targetPoint" />
          </mxGeometry>
        </mxCell>
        <mxCell id="s5f2JVeFz2QCgacz7sFo-14" value="task" style="rounded=0;whiteSpace=wrap;html=1;strokeWidth=2;" vertex="1" parent="EV7D-chZJcu2U4-9GLXk-6">
          <mxGeometry x="403.72" y="470" width="55" height="40" as="geometry" />
        </mxCell>
        <mxCell id="s5f2JVeFz2QCgacz7sFo-15" style="edgeStyle=none;rounded=0;orthogonalLoop=1;jettySize=auto;html=1;exitX=1;exitY=0.5;exitDx=0;exitDy=0;strokeWidth=2;fontSize=13;movable=1;resizable=1;rotatable=1;deletable=1;editable=1;connectable=1;entryX=0;entryY=0.5;entryDx=0;entryDy=0;" edge="1" parent="EV7D-chZJcu2U4-9GLXk-6" source="kxdvltDOQqhLtUZSBMHC-54" target="s5f2JVeFz2QCgacz7sFo-16">
          <mxGeometry relative="1" as="geometry">
            <mxPoint x="387.5" y="589" as="sourcePoint" />
            <mxPoint x="441.48" y="589" as="targetPoint" />
          </mxGeometry>
        </mxCell>
        <mxCell id="s5f2JVeFz2QCgacz7sFo-16" value="task" style="rounded=0;whiteSpace=wrap;html=1;strokeWidth=2;" vertex="1" parent="EV7D-chZJcu2U4-9GLXk-6">
          <mxGeometry x="480" y="503" width="56.97" height="40" as="geometry" />
        </mxCell>
        <mxCell id="s5f2JVeFz2QCgacz7sFo-24" style="edgeStyle=orthogonalEdgeStyle;rounded=0;orthogonalLoop=1;jettySize=auto;html=1;exitX=1;exitY=0.5;exitDx=0;exitDy=0;" edge="1" parent="EV7D-chZJcu2U4-9GLXk-6" source="s5f2JVeFz2QCgacz7sFo-18" target="s5f2JVeFz2QCgacz7sFo-19">
          <mxGeometry relative="1" as="geometry" />
        </mxCell>
        <mxCell id="s5f2JVeFz2QCgacz7sFo-18" value="Run queue" style="rounded=0;whiteSpace=wrap;html=1;" vertex="1" parent="EV7D-chZJcu2U4-9GLXk-6">
          <mxGeometry x="270" y="630" width="60" height="40" as="geometry" />
        </mxCell>
        <mxCell id="s5f2JVeFz2QCgacz7sFo-22" style="edgeStyle=orthogonalEdgeStyle;rounded=0;orthogonalLoop=1;jettySize=auto;html=1;exitX=0.5;exitY=0;exitDx=0;exitDy=0;entryX=0.5;entryY=1;entryDx=0;entryDy=0;" edge="1" parent="EV7D-chZJcu2U4-9GLXk-6" source="s5f2JVeFz2QCgacz7sFo-19" target="s5f2JVeFz2QCgacz7sFo-16">
          <mxGeometry relative="1" as="geometry" />
        </mxCell>
        <mxCell id="s5f2JVeFz2QCgacz7sFo-19" value="" style="rounded=0;whiteSpace=wrap;html=1;" vertex="1" parent="EV7D-chZJcu2U4-9GLXk-6">
          <mxGeometry x="362.5" y="635" width="25" height="30" as="geometry" />
        </mxCell>
        <mxCell id="s5f2JVeFz2QCgacz7sFo-23" style="edgeStyle=orthogonalEdgeStyle;rounded=0;orthogonalLoop=1;jettySize=auto;html=1;exitX=0.5;exitY=0;exitDx=0;exitDy=0;" edge="1" parent="EV7D-chZJcu2U4-9GLXk-6" source="s5f2JVeFz2QCgacz7sFo-20" target="s5f2JVeFz2QCgacz7sFo-12">
          <mxGeometry relative="1" as="geometry" />
        </mxCell>
        <mxCell id="s5f2JVeFz2QCgacz7sFo-20" value="" style="rounded=0;whiteSpace=wrap;html=1;" vertex="1" parent="EV7D-chZJcu2U4-9GLXk-6">
          <mxGeometry x="425" y="635" width="25" height="30" as="geometry" />
        </mxCell>
        <mxCell id="s5f2JVeFz2QCgacz7sFo-26" style="edgeStyle=orthogonalEdgeStyle;rounded=0;orthogonalLoop=1;jettySize=auto;html=1;exitX=1;exitY=0.5;exitDx=0;exitDy=0;entryX=0;entryY=0.5;entryDx=0;entryDy=0;" edge="1" parent="EV7D-chZJcu2U4-9GLXk-6" source="s5f2JVeFz2QCgacz7sFo-19" target="s5f2JVeFz2QCgacz7sFo-20">
          <mxGeometry relative="1" as="geometry" />
        </mxCell>
        <mxCell id="s5f2JVeFz2QCgacz7sFo-27" value="&lt;font style=&quot;font-size: 18px;&quot;&gt;&lt;b&gt;Interrupts&lt;/b&gt;&lt;/font&gt;" style="text;html=1;align=center;verticalAlign=middle;resizable=0;points=[];autosize=1;strokeColor=none;fillColor=none;fontSize=15;" vertex="1" parent="EV7D-chZJcu2U4-9GLXk-6">
          <mxGeometry x="463.48" y="700" width="110" height="40" as="geometry" />
        </mxCell>
      </root>
    </mxGraphModel>
  </diagram>
</mxfile>
